<?xml version="1.0" encoding="utf-8"?>
<!-- Generator: Adobe Illustrator 16.0.0, SVG Export Plug-In . SVG Version: 6.00 Build 0)  -->
<!DOCTYPE svg PUBLIC "-//W3C//DTD SVG 1.1//EN" "http://www.w3.org/Graphics/SVG/1.1/DTD/svg11.dtd">
<svg version="1.1" xmlns="http://www.w3.org/2000/svg" xmlns:xlink="http://www.w3.org/1999/xlink" x="0px" y="0px"
	 width="46.271px" height="43.083px" viewBox="0 0 46.271 43.083" enable-background="new 0 0 46.271 43.083" xml:space="preserve">
<g id="grids">
</g>
<g id="Layer_2">
	<g id="Add_Favorite">
	</g>
	<g id="Panel_x5F_CloseButtonOver">
	</g>
	<g>
		
			<path opacity="0.8" fill="#F2F2F2" fill-opacity="0.4" stroke="#084F60" stroke-width="3" stroke-miterlimit="10" stroke-opacity="0.8" d="
			M38.007,34.807c0,2.592-2.101,4.692-4.691,4.692H7.903c-2.593,0-4.692-2.101-4.692-4.692V12.982c0-2.592,2.1-4.692,4.692-4.692
			h25.412c2.591,0,4.691,2.101,4.691,4.692V34.807z"/>
		<g>
			<path fill="#38717E" d="M21.474,31.013c-0.858,0-1.663-0.334-2.268-0.942l-3.138-3.133c-1.243-1.251-1.243-3.284-0.003-4.534
				l9.741-9.724l-5.165,0.005c-1.77,0-3.208-1.439-3.208-3.208V5.04c0-1.767,1.438-3.205,3.207-3.205h20.483
				c1.77,0,3.21,1.438,3.21,3.205v20.548c0,1.767-1.44,3.204-3.21,3.204h-4.437c-1.768,0-3.205-1.437-3.205-3.204v-5.243
				l-9.738,9.727C23.137,30.679,22.331,31.013,21.474,31.013z"/>
			<g>
				<path fill="#FFFFFF" d="M41.124,2.835c1.219,0,2.21,0.989,2.21,2.205v20.548c0,1.218-0.991,2.204-2.21,2.204h-4.437
					c-1.217,0-2.205-0.986-2.205-2.204v-7.655L23.037,29.365c-0.432,0.432-0.998,0.647-1.563,0.647s-1.13-0.216-1.559-0.647
					l-3.14-3.136c-0.857-0.862-0.857-2.258,0-3.122l11.451-11.43c-0.771,0-7.586,0.007-7.586,0.007
					c-1.216,0-2.207-0.987-2.207-2.208V5.04c0-1.216,0.991-2.205,2.207-2.205H41.124 M41.124,0.835H20.641
					c-2.319,0-4.207,1.886-4.207,4.205v4.436c0,2.321,1.888,4.208,4.207,4.208c0.001,0,1.255-0.001,2.747-0.003l-8.025,8.011
					c-1.633,1.646-1.633,4.311-0.005,5.947l3.145,3.141c0.788,0.793,1.846,1.232,2.972,1.232c1.124,0,2.182-0.438,2.977-1.232
					l8.032-8.022v2.831c0,2.318,1.887,4.204,4.205,4.204h4.437c2.321,0,4.21-1.886,4.21-4.204V5.04
					C45.334,2.721,43.445,0.835,41.124,0.835L41.124,0.835z"/>
			</g>
		</g>
	</g>
</g>
</svg>
