<?xml version="1.0" encoding="utf-8"?>
<!-- Generator: Adobe Illustrator 16.0.0, SVG Export Plug-In . SVG Version: 6.00 Build 0)  -->
<!DOCTYPE svg PUBLIC "-//W3C//DTD SVG 1.1//EN" "http://www.w3.org/Graphics/SVG/1.1/DTD/svg11.dtd">
<svg version="1.1" xmlns="http://www.w3.org/2000/svg" xmlns:xlink="http://www.w3.org/1999/xlink" x="0px" y="0px"
	 width="46.271px" height="43.083px" viewBox="0 0 46.271 43.083" enable-background="new 0 0 46.271 43.083" xml:space="preserve">
<g id="grids">
</g>
<g id="Layer_2">
	<g id="Add_Favorite">
	</g>
	<g id="Panel_x5F_CloseButtonOver">
	</g>
	<g>
		
			<path opacity="0.8" fill="#F2F2F2" fill-opacity="0.4" stroke="#084F60" stroke-width="3" stroke-miterlimit="10" stroke-opacity="0.8" d="
			M38.006,34.807c0,2.592-2.1,4.692-4.691,4.692H7.902c-2.592,0-4.691-2.101-4.691-4.692V12.982c0-2.592,2.1-4.692,4.691-4.692
			h25.412c2.592,0,4.691,2.101,4.691,4.692V34.807z"/>
		<g>
			<path fill="#38717E" d="M30.313,20.023c-0.619,0-1.201-0.241-1.637-0.68l-1.869-1.866c-0.898-0.902-0.898-2.369-0.004-3.271
				l5.111-5.102l-2.098,0.002c-1.277,0-2.316-1.039-2.316-2.315V4.148c0-1.276,1.039-2.313,2.316-2.313h12.201
				c1.277,0,2.316,1.037,2.316,2.313v12.24c0,1.274-1.039,2.313-2.316,2.313h-2.643c-1.275,0-2.314-1.038-2.314-2.313v-2.147
				l-5.111,5.104C31.512,19.783,30.93,20.023,30.313,20.023z"/>
			<g>
				<path fill="#FFFFFF" d="M42.018,2.835c0.725,0,1.316,0.589,1.316,1.313v12.24c0,0.726-0.592,1.313-1.316,1.313h-2.643
					c-0.725,0-1.314-0.587-1.314-1.313v-4.56l-6.818,6.81c-0.256,0.257-0.594,0.385-0.93,0.385c-0.338,0-0.674-0.128-0.93-0.385
					l-1.869-1.868c-0.512-0.514-0.512-1.345,0-1.859l6.82-6.809c-0.459,0-4.518,0.004-4.518,0.004c-0.725,0-1.316-0.588-1.316-1.315
					V4.148c0-0.725,0.592-1.313,1.316-1.313H42.018 M42.018,0.835H29.816c-1.828,0-3.316,1.486-3.316,3.313v2.643
					c0,1.725,1.324,3.146,3.01,3.301l-3.41,3.403c-1.287,1.298-1.287,3.396-0.004,4.686l1.875,1.873
					c0.621,0.624,1.455,0.97,2.342,0.97c0.885,0,1.717-0.344,2.344-0.97l3.414-3.41c0.131,1.708,1.563,3.058,3.305,3.058h2.643
					c1.828,0,3.316-1.486,3.316-3.313V4.148C45.334,2.321,43.846,0.835,42.018,0.835L42.018,0.835z"/>
			</g>
		</g>
		<path fill="#35495E" d="M26.176,24.959v4.973c0,3.073-2.492,5.563-5.566,5.563c-3.072,0-5.563-2.49-5.563-5.563v-4.973
			c0-2.66,1.869-4.882,4.365-5.431c0.428,0.437,0.664,1.011,0.664,1.623c0,0.349-0.086,0.683-0.23,0.989
			c-1.438,0.346-2.508,1.631-2.508,3.175v4.302c0,1.809,1.465,3.274,3.271,3.274c1.811,0,3.273-1.465,3.273-3.274v-4.302
			c0-0.329-0.063-0.639-0.15-0.938c0.557-1.069,0.801-2.258,0.723-3.434C25.514,21.957,26.176,23.379,26.176,24.959z M21.904,17.439
			l-3.516-3.516c-2.172-2.172-5.695-2.172-7.867,0c-2.174,2.173-2.174,5.696,0,7.868l3.516,3.518
			c0.02,0.019,0.045,0.033,0.063,0.051v-0.4c0-0.837,0.17-1.633,0.463-2.369l-2.17-2.168c-1.277-1.279-1.277-3.351,0-4.629
			c1.279-1.278,3.35-1.278,4.629,0l3.041,3.044c1.281,1.276,1.281,3.349,0,4.627c-0.441,0.442-0.98,0.72-1.545,0.856
			c-0.146,0.302-0.232,0.636-0.232,0.994v1.591c1.316-0.074,2.615-0.593,3.619-1.599C24.078,23.135,24.078,19.611,21.904,17.439z"/>
	</g>
</g>
</svg>
