<?xml version="1.0" encoding="utf-8"?>
<!-- Generator: Adobe Illustrator 16.0.0, SVG Export Plug-In . SVG Version: 6.00 Build 0)  -->
<!DOCTYPE svg PUBLIC "-//W3C//DTD SVG 1.1//EN" "http://www.w3.org/Graphics/SVG/1.1/DTD/svg11.dtd">
<svg version="1.1" xmlns="http://www.w3.org/2000/svg" xmlns:xlink="http://www.w3.org/1999/xlink" x="0px" y="0px" width="34.75px"
	 height="43.083px" viewBox="0 0 34.75 43.083" enable-background="new 0 0 34.75 43.083" xml:space="preserve">
<g id="grids">
</g>
<g id="Layer_2">
	<g id="Add_Favorite">
	</g>
	<g id="Panel_x5F_CloseButtonOver">
	</g>
	<g>
		<g>
			<path fill="#38717E" d="M30.001,23.111v7.331c0,4.529-3.674,8.2-8.206,8.2c-4.528,0-8.199-3.671-8.199-8.2v-7.331
				c0-3.921,2.755-7.197,6.435-8.005c0.631,0.645,0.979,1.491,0.979,2.392c0,0.515-0.126,1.007-0.34,1.458
				c-2.118,0.51-3.696,2.404-3.696,4.68v6.342c0,2.667,2.159,4.826,4.822,4.826c2.669,0,4.825-2.159,4.825-4.826v-6.342
				c0-0.484-0.092-0.942-0.222-1.383c0.821-1.576,1.181-3.328,1.065-5.062C29.024,18.685,30.001,20.782,30.001,23.111z
				 M23.704,12.025l-5.183-5.183c-3.201-3.202-8.396-3.202-11.597,0c-3.205,3.203-3.205,8.397,0,11.598l5.182,5.186
				c0.029,0.027,0.066,0.048,0.093,0.075v-0.589c0-1.234,0.25-2.408,0.683-3.492l-3.199-3.196c-1.883-1.885-1.883-4.939,0-6.823
				c1.886-1.884,4.938-1.884,6.823,0l4.483,4.488c1.889,1.881,1.889,4.936,0,6.82c-0.651,0.651-1.445,1.062-2.277,1.263
				c-0.217,0.445-0.343,0.938-0.343,1.465v2.346c1.94-0.109,3.854-0.874,5.335-2.356C26.908,20.421,26.908,15.228,23.704,12.025z"/>
		</g>
	</g>
</g>
</svg>
