<?xml version="1.0" encoding="utf-8"?>
<!-- Generator: Adobe Illustrator 16.0.0, SVG Export Plug-In . SVG Version: 6.00 Build 0)  -->
<!DOCTYPE svg PUBLIC "-//W3C//DTD SVG 1.1//EN" "http://www.w3.org/Graphics/SVG/1.1/DTD/svg11.dtd">
<svg version="1.1" xmlns="http://www.w3.org/2000/svg" xmlns:xlink="http://www.w3.org/1999/xlink" x="0px" y="0px"
	 width="73.146px" height="45.833px" viewBox="0 0 73.146 45.833" enable-background="new 0 0 73.146 45.833" xml:space="preserve">
<g id="grids">
</g>
<g id="Layer_2">
	<g id="Add_Favorite">
	</g>
	<g id="Panel_x5F_CloseButtonOver">
	</g>
	<g>
		
			<path opacity="0.8" fill="#F2F2F2" fill-opacity="0.4" stroke="#084F60" stroke-width="3" stroke-miterlimit="10" stroke-opacity="0.8" d="
			M52.335,10.04h6.781c2.591,0,4.691,2.101,4.691,4.692v7.018v14.806c0,2.592-2.101,4.692-4.691,4.692H8.704
			c-2.593,0-4.692-2.101-4.692-4.692V14.732c0-2.592,2.1-4.692,4.692-4.692H52.335"/>
		<g>
			<polygon fill="#D0D2D3" points="21.579,13.745 8.333,13.745 8.333,37.543 26.974,37.543 26.974,19.138 			"/>
			<polygon fill="#AEAEAE" points="21.579,13.745 21.579,19.138 26.974,19.138 			"/>
			<polygon fill="#D0D2D3" points="44.629,13.745 31.384,13.745 31.384,37.543 50.021,37.543 50.021,19.138 			"/>
			<g>
				<g opacity="0.2">
					<path fill="#231F20" d="M42.083,22.606l-6.255-3.506l-0.576,3.273c-14.724-2.592-17.797,5.301-18.084,6.935
						c4.422-5.967,14.027-2.888,15.663-2.601l0.372,4.76L42.083,22.606z"/>
				</g>
				<g>
					<path fill="#35495E" d="M42.083,22.606l-8.307-6.645v3.323c-14.949,0-16.608,8.305-16.608,9.965
						c3.321-6.644,14.949-3.323,16.608-3.323v3.323L42.083,22.606z"/>
				</g>
			</g>
			<polygon fill="#AEAEAE" points="44.629,13.745 44.629,19.138 50.021,19.138 			"/>
		</g>
		<g>
			<path fill="#38717E" d="M56.113,21.773c-0.619,0-1.2-0.241-1.637-0.68l-1.869-1.866c-0.897-0.902-0.897-2.369-0.003-3.271
				l5.111-5.102l-2.098,0.002c-1.277,0-2.316-1.039-2.316-2.315V5.898c0-1.276,1.039-2.313,2.315-2.313h12.201
				c1.277,0,2.316,1.037,2.316,2.313v12.24c0,1.274-1.039,2.313-2.316,2.313h-2.643c-1.275,0-2.313-1.038-2.313-2.313v-2.147
				l-5.111,5.104C57.313,21.533,56.731,21.773,56.113,21.773z"/>
			<g>
				<path fill="#FFFFFF" d="M67.818,4.585c0.726,0,1.316,0.589,1.316,1.313v12.24c0,0.726-0.591,1.313-1.316,1.313h-2.643
					c-0.725,0-1.313-0.587-1.313-1.313v-4.56l-6.818,6.81c-0.257,0.257-0.595,0.385-0.931,0.385c-0.337,0-0.673-0.128-0.929-0.385
					l-1.87-1.868c-0.511-0.514-0.511-1.345,0-1.859l6.821-6.809c-0.46,0-4.519,0.004-4.519,0.004c-0.725,0-1.315-0.588-1.315-1.315
					V5.898c0-0.725,0.591-1.313,1.315-1.313H67.818 M67.818,2.585H55.617c-1.828,0-3.315,1.486-3.315,3.313v2.643
					c0,1.725,1.324,3.146,3.009,3.301l-3.409,3.403c-1.287,1.298-1.287,3.396-0.005,4.686l1.875,1.873
					c0.622,0.624,1.455,0.97,2.342,0.97c0.885,0,1.717-0.344,2.344-0.97l3.415-3.41c0.131,1.708,1.563,3.058,3.304,3.058h2.643
					c1.828,0,3.316-1.486,3.316-3.313V5.898C71.135,4.071,69.646,2.585,67.818,2.585L67.818,2.585z"/>
			</g>
		</g>
	</g>
</g>
</svg>
